2600 0 1 0           
17 Abaqus 2022 - 310 17 ACIS 31.0 Unknown 24 Mon May 23 19:51:56 2022 
1 9.9999999999999995e-07 1e-10 
T @77 VX4VGYPSQQ6BTH3WDAAEX8N466R48D5F_AU4P8QA7CRKJA76F8S4K4P2QAT4GX6VT8RKQJ7VTC9CR 
-0 body $1 -1 -1 $-1 $2 $-1 $3 T -0.0090000000000000011 0.05099999999999999 -0.0090000000000000011 0.0090000000000000011 0.23099999999999998 0.0090000000000000011 #
-1 string_attrib-name_attrib-gen-attrib $-1 -1 $4 $-1 $0 2 1 1 1 1 1 1 1 1 1 1 1 1 1 0 1 1 1 @13 HKS_PART_NAME @4 bone #
-2 lump $5 -1 -1 $-1 $-1 $6 $0 T -0.0090000000000000011 0.05099999999999999 -0.0090000000000000011 0.0090000000000000011 0.23099999999999998 0.0090000000000000011 #
-3 transform $-1 -1 1 0 0 0 1 0 0 0 1 0 0 0 1 no_rotate no_reflect no_shear #
-4 string_attrib-name_attrib-gen-attrib $-1 -1 $-1 $1 $0 2 1 1 1 1 1 1 1 1 1 1 1 1 1 0 1 1 1 @18 HKS_ATTRIB_BODY_ID @1 1 #
-5 cell_ptr-ct-attrib $-1 -1 $-1 $-1 $2 1 1 1 1 1 1 1 1 1 1 1 1 0 1 0 1 1 1 $7 $-1 auto #
-6 shell $-1 -1 -1 $-1 $-1 $-1 $8 $-1 $2 T -0.0090000000000000011 0.05099999999999999 -0.0090000000000000011 0.0090000000000000011 0.23099999999999998 0.0090000000000000011 #
-7 cell3d-cell $-1 -1 $-1 $2 $-1 1 $9 #
-8 face $10 -1 -1 $-1 $11 $12 $6 $-1 $13 forward single T -0.0090000000000000011 0.23099999999999998 -0.0090000000000000011 0.0090000000000000011 0.23099999999999998 0.0090000000000000011 F #
-9 cshell $-1 -1 $-1 $14 $7 #
-10 cface_ptr-ct-attrib $-1 -1 $-1 $-1 $8 1 1 1 1 1 1 1 1 1 1 1 1 0 1 0 1 1 1 $-1 $15 #
-11 face $16 -1 -1 $-1 $17 $18 $6 $-1 $19 forward single T -0.0090000000000000011 0.050999999999999997 -0.0090000000000000011 0.0090000000000000011 0.23099999999999998 0.0090000000000000011 F #
-12 loop $-1 -1 -1 $-1 $-1 $20 $8 T -0.0090000000000000011 0.23099999999999998 -0.0090000000000000011 0.0090000000000000011 0.23099999999999998 0.0090000000000000011 periphery $13 F #
-13 plane-surface $-1 -1 -1 $-1 0.0080000000000000002 0.23099999999999998 0 0 1 0 -1 0 0 forward_v I I I I #
-14 cface $-1 -1 $21 $9 $17 0 #
-15 cface $-1 -1 $-1 $9 $8 0 #
-16 cface_ptr-ct-attrib $-1 -1 $-1 $-1 $11 1 1 1 1 1 1 1 1 1 1 1 1 0 1 0 1 1 1 $-1 $22 #
-17 face $23 -1 -1 $-1 $24 $25 $6 $-1 $26 forward single T -0.0090000000000000011 0.05099999999999999 -0.0090000000000000011 0.0090000000000000011 0.050999999999999997 0.0090000000000000011 F #
-18 loop $-1 -1 -1 $-1 $-1 $27 $11 T -0.0090000000000000011 0.050999999999999997 -0.0090000000000000011 0.0090000000000000011 0.23099999999999998 0.0090000000000000011 periphery $19 F #
-19 cone-surface $-1 -1 -1 $-1 0 0.14099999999999999 0 0 -1 0 0.0090000000000000011 0 0 1 I I 0 1 0.0090000000000000011 forward I I I I #
-20 coedge $-1 -1 -1 $-1 $28 $29 $30 $31 forward $12 $-1 #
-21 cface $-1 -1 $22 $9 $24 0 #
-22 cface $-1 -1 $15 $9 $11 0 #
-23 cface_ptr-ct-attrib $-1 -1 $-1 $-1 $17 1 1 1 1 1 1 1 1 1 1 1 1 0 1 0 1 1 1 $-1 $14 #
-24 face $32 -1 -1 $-1 $-1 $33 $6 $-1 $34 forward single T -0.0070000000000000001 0.05099999999999999 -0.0070000000000000001 0.0070000000000000001 0.23099999999999998 0.0070000000000000001 F #
-25 loop $-1 -1 -1 $-1 $-1 $35 $17 T -0.0090000000000000011 0.05099999999999999 -0.0090000000000000011 0.0090000000000000011 0.050999999999999997 0.0090000000000000011 periphery $26 F #
-26 plane-surface $-1 -1 -1 $-1 0.0080000000000000002 0.05099999999999999 0 3.4694469519536126e-15 -1 0 1 0 0 forward_v I I I I #
-27 coedge $-1 -1 -1 $-1 $36 $37 $38 $39 forward $18 $-1 #
-28 coedge $-1 -1 -1 $-1 $30 $20 $37 $40 reversed $12 $-1 #
-29 coedge $-1 -1 -1 $-1 $20 $30 $41 $42 forward $12 $-1 #
-30 coedge $-1 -1 -1 $-1 $29 $28 $20 $31 reversed $12 $-1 #
-31 edge $-1 -1 -1 $-1 $43 -0.0020000000000000009 $44 0 $20 $45 forward @7 unknown T 0.0070000000000000001 0.23099999999999998 0 0.0090000000000000011 0.23099999999999998 0 #
-32 cface_ptr-ct-attrib $-1 -1 $-1 $-1 $24 1 1 1 1 1 1 1 1 1 1 1 1 0 1 0 1 1 1 $-1 $21 #
-33 loop $-1 -1 -1 $-1 $-1 $46 $24 T -0.0070000000000000001 0.05099999999999999 -0.0070000000000000001 0.0070000000000000001 0.23099999999999998 0.0070000000000000001 periphery $34 F #
-34 cone-surface $-1 -1 -1 $-1 0 0.14099999999999999 0 0 -1 0 0.0070000000000000001 0 0 1 I I 0 -1 0.0070000000000000001 forward I I I I #
-35 coedge $-1 -1 -1 $-1 $47 $48 $49 $50 forward $25 $-1 #
-36 coedge $-1 -1 -1 $-1 $38 $27 $48 $51 reversed $18 $-1 #
-37 coedge $-1 -1 -1 $-1 $27 $38 $28 $40 forward $18 $-1 #
-38 coedge $-1 -1 -1 $-1 $37 $36 $27 $39 reversed $18 $-1 #
-39 edge $52 -1 -1 $-1 $44 -0.17999999999999999 $53 -0 $27 $54 forward @7 unknown T 0.0090000000000000011 0.050999999999999997 0 0.0090000000000000011 0.23099999999999998 0 #
-40 edge $-1 -1 -1 $-1 $44 0 $44 6.2831853071795862 $37 $55 forward @7 unknown T -0.0090000000000000011 0.23099999999999998 -0.0090000000000000011 0.0090000000000000011 0.23099999999999998 0.0090000000000000011 #
-41 coedge $-1 -1 -1 $-1 $56 $46 $29 $42 reversed $33 $-1 #
-42 edge $-1 -1 -1 $-1 $43 0 $43 6.2831853071795862 $29 $57 forward @7 unknown T -0.0070000000000000001 0.23099999999999998 -0.0070000000000000001 0.0070000000000000001 0.23099999999999998 0.0070000000000000001 #
-43 vertex $-1 -1 -1 $-1 $58 $59 #
-44 vertex $-1 -1 -1 $-1 $31 $60 #
-45 straight-curve $-1 -1 -1 $-1 0.0090000000000000011 0.23099999999999998 0 1 -0 -0 I I #
-46 coedge $-1 -1 -1 $-1 $41 $61 $56 $58 forward $33 $-1 #
-47 coedge $-1 -1 -1 $-1 $49 $35 $61 $62 reversed $25 $-1 #
-48 coedge $-1 -1 -1 $-1 $35 $49 $36 $51 forward $25 $-1 #
-49 coedge $-1 -1 -1 $-1 $48 $47 $35 $50 reversed $25 $-1 #
-50 edge $-1 -1 -1 $-1 $53 -0.0020000000000000009 $63 0 $35 $64 forward @7 unknown T 0.0070000000000000001 0.05099999999999999 0 0.0090000000000000011 0.050999999999999997 0 #
-51 edge $-1 -1 -1 $-1 $53 0 $53 6.2831853071795862 $48 $65 forward @7 unknown T -0.0090000000000000011 0.050999999999999997 -0.0090000000000000011 0.0090000000000000011 0.050999999999999997 0.0090000000000000011 #
-52 integer_attrib-name_attrib-gen-attrib $-1 -1 $-1 $-1 $39 2 3 2 1 1 1 1 1 1 1 1 1 1 1 0 1 1 1 @12 make_tangent 1 #
-53 vertex $-1 -1 -1 $-1 $39 $66 #
-54 straight-curve $-1 -1 -1 $-1 0.0090000000000000011 0.050999999999999997 0 -0 -1 -0 I I #
-55 ellipse-curve $-1 -1 -1 $-1 0 0.23099999999999998 0 0 -1 0 0.0090000000000000011 0 0 1 I I #
-56 coedge $-1 -1 -1 $-1 $61 $41 $46 $58 reversed $33 $-1 #
-57 ellipse-curve $-1 -1 -1 $-1 0 0.23099999999999998 0 0 -1 0 0.0070000000000000001 0 0 1 I I #
-58 edge $67 -1 -1 $-1 $63 -0.17999999999999999 $43 0 $46 $68 forward @7 unknown T 0.0070000000000000001 0.05099999999999999 0 0.0070000000000000001 0.23099999999999998 0 #
-59 point $-1 -1 -1 $-1 0.0070000000000000001 0.23099999999999998 0 #
-60 point $-1 -1 -1 $-1 0.0090000000000000011 0.23099999999999998 0 #
-61 coedge $-1 -1 -1 $-1 $46 $56 $47 $62 forward $33 $-1 #
-62 edge $-1 -1 -1 $-1 $63 0 $63 6.2831853071795862 $61 $69 forward @7 unknown T -0.0070000000000000001 0.05099999999999999 -0.0070000000000000001 0.0070000000000000001 0.05099999999999999 0.0070000000000000001 #
-63 vertex $-1 -1 -1 $-1 $58 $70 #
-64 straight-curve $-1 -1 -1 $-1 0.0070000000000000001 0.050999999999999997 0 -1 -0 -0 I I #
-65 ellipse-curve $-1 -1 -1 $-1 0 0.050999999999999997 0 0 -1 0 0.0090000000000000011 0 0 1 I I #
-66 point $-1 -1 -1 $-1 0.0090000000000000011 0.050999999999999997 0 #
-67 integer_attrib-name_attrib-gen-attrib $-1 -1 $-1 $-1 $58 2 3 2 1 1 1 1 1 1 1 1 1 1 1 0 1 1 1 @12 make_tangent 1 #
-68 straight-curve $-1 -1 -1 $-1 0.0070000000000000001 0.23099999999999998 0 -0 1 -0 I I #
-69 ellipse-curve $-1 -1 -1 $-1 0 0.05099999999999999 0 0 -1 0 0.0070000000000000001 0 0 1 I I #
-70 point $-1 -1 -1 $-1 0.0070000000000000001 0.05099999999999999 0 #
End-of-ACIS-data 
